# xmcd
#
# Track frame offsets:
# 150
# 21110
# 36103
# 49283
# 63423
# 75423
# 90713
# 112715
# 126505
# 139968
# 155490
# 170290
# 184775
# 206288
#
# Disc length: 2890 seconds
#
# Revision: 1
# Processed by: cddbd v1.5.1PL0 Copyright (c) Steve Scherf et al.
# Submitted via: inCDius 2.0b9
#
DISCID=b50b480e
DTITLE=Linn Barnes and Allison Hampton - Moonlight
DYEAR=1900
DGENRE=
TTITLE0=Buddy Bolden's Blues/Winin' Boy Blues
TTITLE1=Tears
TTITLE2=Louis Collins/Richlands Woman Blues
TTITLE3=Hesitation Blues
TTITLE4=Dallas Rag
TTITLE5=Oft in the Stilly Night
TTITLE6=A Blues Suite
TTITLE7=Ain't Misbehavin'
TTITLE8=Dink's Song
TTITLE9=St. Louis Tickle
TTITLE10=The Western Wind
TTITLE11=Living in the Country
TTITLE12=Sunflower Slow Drag
TTITLE13=Eleanor Plunkett
EXTD=
EXTT0=
EXTT1=
EXTT2=
EXTT3=
EXTT4=
EXTT5=
EXTT6=
EXTT7=
EXTT8=
EXTT9=
EXTT10=
EXTT11=
EXTT12=
EXTT13=
PLAYORDER=
